<?xml version="1.0" encoding="utf-8"?>
<!-- Generator: Adobe Illustrator 19.0.0, SVG Export Plug-In . SVG Version: 6.00 Build 0)  -->
<svg version="1.1" id="Layer_1" xmlns="http://www.w3.org/2000/svg" xmlns:xlink="http://www.w3.org/1999/xlink" x="0px" y="0px"
	 viewBox="0 0 612 792" style="enable-background:new 0 0 612 792;" xml:space="preserve">
<style type="text/css">
	.st0{fill:#FFFFFF;}
</style>
<g id="XMLID_1_">
	<g id="XMLID_2_">
		<rect id="XMLID_12_" x="269.3" y="369.9" class="st0" width="48.6" height="396.9"/>
		<polygon id="XMLID_14_" class="st0" points="529,311.6 437.5,311.6 451.8,355.9 529,355.9 		"/>
		<polygon id="XMLID_16_" class="st0" points="58.2,311.6 58.2,355.9 135.2,355.9 149.4,311.6 		"/>
	</g>
	<g id="XMLID_18_">
		<polygon id="XMLID_23_" class="st0" points="327.7,36.8 297.9,95.4 374.8,311.2 377.2,317.9 209.5,317.9 211.9,311.2 289.2,95.2 
			260.7,36.8 162.3,311.2 146.4,355.5 93.1,504.1 143.3,504.1 196.1,355.5 196.1,355.4 390.7,355.4 390.7,355.5 443.5,504.1 
			494,504.1 441.1,355.5 425.3,311.2 		"/>
	</g>
	<g id="XMLID_17_">
		<path id="XMLID_21_" class="st0" d="M292.9,74.7c0.9-1.6,1.8-3.3,2.7-4.9l16.8-33h-37.8l16.1,32.9
			C291.5,71.4,292.2,73.1,292.9,74.7z"/>
	</g>
</g>
</svg>
