<?xml version="1.0" encoding="utf-8"?>
<!-- Generator: Adobe Illustrator 19.0.0, SVG Export Plug-In . SVG Version: 6.00 Build 0)  -->
<svg version="1.1" id="Layer_1" xmlns="http://www.w3.org/2000/svg" xmlns:xlink="http://www.w3.org/1999/xlink" x="0px" y="0px"
	 viewBox="0 0 612 792" style="enable-background:new 0 0 612 792;" xml:space="preserve">
<style type="text/css">
	.st0{fill:#FFFFFF;}
	.st1{fill:#FFFFFF;stroke:#FFFFFF;stroke-width:20;stroke-miterlimit:10;}
</style>
<g id="XMLID_1_">
	<rect id="XMLID_3_" x="306.4" y="351.4" width="48.6" height="413.4"/>
	<polygon id="XMLID_9_" points="97.6,307.1 97.6,351.4 298.3,351.4 362.7,351.4 563.8,351.4 563.8,307.1 	"/>
</g>
<g id="XMLID_6_">
	<path id="XMLID_40_" d="M473.8,510l-52.8-148.7H240.5L187.7,510h-71.5L291,22.8h81L545.5,510H473.8z M400.4,303.8l-69.5-195.1
		l-69.8,195.1H400.4z"/>
	<path id="XMLID_35_" class="st0" d="M365,32.8L531.4,500h-50.5L428,351.3H233.4L180.6,500h-50.2L298.1,32.8H365 M246.9,313.8h167.7
		L330.9,79L246.9,313.8 M379.1,12.8H365h-66.9H284L279.3,26L111.6,493.3L102,520h28.4h50.2h14.1l4.7-13.3l48.1-135.4h166.3
		L462,506.7l4.7,13.3h14.1h50.5h28.4l-9.5-26.7L383.9,26.1L379.1,12.8L379.1,12.8z M275.3,293.8l55.6-155.3l55.3,155.3H275.3
		L275.3,293.8z"/>
</g>
<line id="XMLID_2_" class="st1" x1="298.1" y1="32.8" x2="330.9" y2="100"/>
<line id="XMLID_4_" class="st1" x1="330.9" y1="100" x2="365" y2="32.8"/>
</svg>
